<?xml version="1.0" encoding="UTF-8" standalone="no"?>
<!DOCTYPE svg PUBLIC "-//W3C//DTD SVG 1.1//EN" "http://www.w3.org/Graphics/SVG/1.1/DTD/svg11.dtd">
<svg width="302px" height="302px" version="1.1" xmlns="http://www.w3.org/2000/svg" xmlns:xlink="http://www.w3.org/1999/xlink" xml:space="preserve" xmlns:serif="http://www.serif.com/" style="fill-rule:evenodd;clip-rule:evenodd;stroke-linejoin:round;stroke-miterlimit:2;">
    <g transform="matrix(1,0,0,1,-11668.3,-12762.2)">
        <g id="dashed-circle" transform="matrix(0.993078,0,0,0.993078,10816.7,2616.91)">
            <path d="M858.573,10378C858.46,10376.3 858.376,10374.6 858.319,10372.9L859.322,10372.9L859.362,10373.9C859.403,10374.9 859.453,10375.9 859.514,10376.9L859.574,10377.9L858.573,10378ZM858.573,10357.6L859.574,10357.7L859.514,10358.7C859.453,10359.7 859.403,10360.7 859.362,10361.7L859.322,10362.7L858.319,10362.7C858.376,10361 858.46,10359.3 858.573,10357.6ZM860.361,10342.4L861.352,10342.6L861.19,10343.6C861.028,10344.6 860.875,10345.6 860.733,10346.6L860.591,10347.6L859.598,10347.4C859.825,10345.8 860.079,10344.1 860.361,10342.4ZM863.684,10327.5L864.653,10327.7L864.391,10328.7C864.127,10329.7 863.874,10330.7 863.63,10331.7L863.387,10332.6L862.413,10332.4C862.81,10330.7 863.233,10329.1 863.684,10327.5ZM868.512,10313L869.449,10313.3L869.089,10314.3C868.728,10315.2 868.375,10316.2 868.032,10317.1L867.691,10318.1L866.747,10317.7C867.309,10316.1 867.898,10314.5 868.512,10313ZM874.794,10299L875.69,10299.5L875.236,10300.4C874.78,10301.3 874.333,10302.2 873.894,10303.1L873.459,10304L872.554,10303.6C873.276,10302 874.023,10300.5 874.794,10299ZM882.459,10285.8L883.305,10286.3L882.762,10287.2C882.217,10288 881.679,10288.9 881.151,10289.7L880.626,10290.6L879.769,10290.1C880.642,10288.6 881.539,10287.2 882.459,10285.8ZM891.422,10273.4L892.209,10274L891.584,10274.8C890.955,10275.6 890.334,10276.4 889.721,10277.2L889.112,10278L888.312,10277.4C889.327,10276 890.364,10274.7 891.422,10273.4ZM901.588,10261.9L902.308,10262.6L901.607,10263.4C900.901,10264.1 900.202,10264.8 899.511,10265.6L898.824,10266.3L898.09,10265.6C899.235,10264.4 900.401,10263.1 901.588,10261.9ZM912.85,10251.6L913.497,10252.3L912.726,10253C911.951,10253.6 911.182,10254.3 910.42,10255L909.663,10255.6L909.001,10254.9C910.265,10253.8 911.549,10252.7 912.85,10251.6ZM925.097,10242.4L925.663,10243.2L924.832,10243.8C923.994,10244.4 923.163,10244.9 922.337,10245.5L921.517,10246.1L920.935,10245.3C922.305,10244.3 923.693,10243.3 925.097,10242.4ZM938.207,10234.5L938.687,10235.4L937.802,10235.9C936.911,10236.4 936.025,10236.9 935.145,10237.4L934.27,10237.9L933.773,10237C935.236,10236.1 936.714,10235.3 938.207,10234.5ZM952.05,10228L952.437,10228.9L951.508,10229.3C950.572,10229.7 949.64,10230.1 948.714,10230.5L947.793,10230.9L947.387,10230C948.928,10229.3 950.482,10228.6 952.05,10228ZM966.484,10222.9L966.775,10223.9L965.811,10224.2C964.839,10224.5 963.872,10224.8 962.909,10225.1L961.952,10225.4L961.641,10224.4C963.244,10223.9 964.858,10223.4 966.484,10222.9ZM981.361,10219.3L981.552,10220.3L980.563,10220.5C979.567,10220.7 978.574,10220.9 977.584,10221.1L976.6,10221.3L976.389,10220.4C978.036,10220 979.694,10219.6 981.361,10219.3ZM996.524,10217.3L996.615,10218.3L995.612,10218.4C994.6,10218.5 993.592,10218.6 992.586,10218.7L991.585,10218.8L991.475,10217.8C993.15,10217.6 994.833,10217.4 996.524,10217.3ZM1011.82,10216.8L1011.81,10217.8L1010.8,10217.8C1010.29,10217.8 1009.79,10217.8 1009.28,10217.8C1008.77,10217.8 1008.26,10217.8 1007.76,10217.8L1006.75,10217.8L1006.74,10216.8C1007.59,10216.8 1008.43,10216.8 1009.28,10216.8C1010.13,10216.8 1010.97,10216.8 1011.82,10216.8ZM1027.09,10217.8L1026.97,10218.8L1025.97,10218.7C1024.97,10218.6 1023.96,10218.5 1022.95,10218.4L1021.94,10218.3L1022.03,10217.3C1023.73,10217.4 1025.41,10217.6 1027.09,10217.8ZM1042.17,10220.4L1041.96,10221.3L1040.97,10221.1C1039.99,10220.9 1038.99,10220.7 1038,10220.5L1037.01,10220.3L1037.2,10219.3C1038.87,10219.6 1040.52,10220 1042.17,10220.4ZM1056.92,10224.4L1056.61,10225.4L1055.65,10225.1C1054.69,10224.8 1053.72,10224.5 1052.75,10224.2L1051.78,10223.9L1052.08,10222.9C1053.7,10223.4 1055.32,10223.9 1056.92,10224.4ZM1071.17,10230L1070.77,10230.9L1069.85,10230.5C1068.92,10230.1 1067.99,10229.7 1067.05,10229.3L1066.12,10228.9L1066.51,10228C1068.08,10228.6 1069.63,10229.3 1071.17,10230ZM1084.79,10237L1084.29,10237.9L1083.41,10237.4C1082.53,10236.9 1081.65,10236.4 1080.76,10235.9L1079.87,10235.4L1080.35,10234.5C1081.85,10235.3 1083.32,10236.1 1084.79,10237ZM1097.62,10245.3L1097.04,10246.1L1096.22,10245.5C1095.4,10244.9 1094.57,10244.4 1093.73,10243.8L1092.9,10243.2L1093.46,10242.4C1094.87,10243.3 1096.25,10244.3 1097.62,10245.3ZM1109.56,10254.9L1108.9,10255.6L1108.14,10255C1107.38,10254.3 1106.61,10253.6 1105.83,10253L1105.06,10252.3L1105.71,10251.6C1107.01,10252.7 1108.29,10253.8 1109.56,10254.9ZM1120.47,10265.6L1119.74,10266.3L1119.05,10265.6C1118.36,10264.8 1117.66,10264.1 1116.95,10263.4L1116.25,10262.6L1116.97,10261.9C1118.16,10263.1 1119.32,10264.4 1120.47,10265.6ZM1130.25,10277.4L1129.45,10278L1128.84,10277.2C1128.23,10276.4 1127.6,10275.6 1126.98,10274.8L1126.35,10274L1127.14,10273.4C1128.19,10274.7 1129.23,10276 1130.25,10277.4ZM1138.79,10290.1L1137.93,10290.6L1137.41,10289.7C1136.88,10288.9 1136.34,10288 1135.8,10287.2L1135.25,10286.3L1136.1,10285.8C1137.02,10287.2 1137.92,10288.6 1138.79,10290.1ZM1146.01,10303.6L1145.1,10304L1144.66,10303.1C1144.23,10302.2 1143.78,10301.3 1143.32,10300.4L1142.87,10299.5L1143.77,10299C1144.54,10300.5 1145.28,10302 1146.01,10303.6ZM1151.81,10317.7L1150.87,10318.1L1150.53,10317.1C1150.18,10316.2 1149.83,10315.2 1149.47,10314.3L1149.11,10313.3L1150.05,10313C1150.66,10314.5 1151.25,10316.1 1151.81,10317.7ZM1156.15,10332.4L1155.17,10332.6L1154.93,10331.7C1154.69,10330.7 1154.43,10329.7 1154.17,10328.7L1153.91,10327.7L1154.88,10327.5C1155.33,10329.1 1155.75,10330.7 1156.15,10332.4ZM1158.96,10347.4L1157.97,10347.6L1157.83,10346.6C1157.68,10345.6 1157.53,10344.6 1157.37,10343.6L1157.21,10342.6L1158.2,10342.4C1158.48,10344.1 1158.73,10345.8 1158.96,10347.4ZM1160.24,10362.7L1159.24,10362.7L1159.2,10361.7C1159.16,10360.7 1159.11,10359.7 1159.05,10358.7L1158.99,10357.7L1159.99,10357.6C1160.1,10359.3 1160.18,10361 1160.24,10362.7ZM1159.99,10378L1158.99,10377.9L1159.05,10376.9C1159.11,10375.9 1159.16,10374.9 1159.2,10373.9L1159.24,10372.9L1160.24,10372.9C1160.18,10374.6 1160.1,10376.3 1159.99,10378ZM1158.2,10393.2L1157.21,10393L1157.37,10392C1157.53,10391 1157.68,10390 1157.83,10389L1157.97,10388L1158.96,10388.2C1158.73,10389.8 1158.48,10391.5 1158.2,10393.2ZM1154.88,10408.1L1153.91,10407.9L1154.17,10406.9C1154.43,10405.9 1154.69,10404.9 1154.93,10403.9L1155.17,10403L1156.15,10403.2C1155.75,10404.9 1155.33,10406.5 1154.88,10408.1ZM1150.05,10422.6L1149.11,10422.3L1149.47,10421.3C1149.83,10420.4 1150.18,10419.4 1150.53,10418.5L1150.87,10417.5L1151.81,10417.9C1151.25,10419.5 1150.66,10421.1 1150.05,10422.6ZM1143.77,10436.6L1142.87,10436.1L1143.32,10435.2C1143.78,10434.3 1144.23,10433.4 1144.66,10432.5L1145.1,10431.6L1146.01,10432C1145.28,10433.6 1144.54,10435.1 1143.77,10436.6ZM1136.1,10449.8L1135.25,10449.3L1135.8,10448.4C1136.34,10447.6 1136.88,10446.7 1137.41,10445.9L1137.93,10445L1138.79,10445.5C1137.92,10447 1137.02,10448.4 1136.1,10449.8ZM1127.14,10462.2L1126.35,10461.6L1126.98,10460.8C1127.6,10460 1128.23,10459.2 1128.84,10458.4L1129.45,10457.6L1130.25,10458.2C1129.23,10459.6 1128.19,10460.9 1127.14,10462.2ZM1116.97,10473.7L1116.25,10473L1116.95,10472.2C1117.66,10471.5 1118.36,10470.8 1119.05,10470L1119.74,10469.3L1120.47,10470C1119.32,10471.2 1118.16,10472.5 1116.97,10473.7ZM1105.71,10484L1105.06,10483.3L1105.83,10482.6C1106.61,10482 1107.38,10481.3 1108.14,10480.6L1108.9,10480L1109.56,10480.7C1108.29,10481.8 1107.01,10482.9 1105.71,10484ZM1093.46,10493.2L1092.9,10492.4L1093.73,10491.8C1094.57,10491.2 1095.4,10490.7 1096.22,10490.1L1097.04,10489.5L1097.62,10490.3C1096.25,10491.3 1094.87,10492.3 1093.46,10493.2ZM1080.35,10501.1L1079.87,10500.2L1080.76,10499.7C1081.65,10499.2 1082.53,10498.7 1083.41,10498.2L1084.29,10497.7L1084.79,10498.6C1083.32,10499.5 1081.85,10500.3 1080.35,10501.1ZM1066.51,10507.6L1066.12,10506.7L1067.05,10506.3C1067.99,10505.9 1068.92,10505.5 1069.85,10505.1L1070.77,10504.7L1071.17,10505.6C1069.63,10506.3 1068.08,10507 1066.51,10507.6ZM1052.08,10512.7L1051.79,10511.7L1052.75,10511.4C1053.72,10511.1 1054.69,10510.8 1055.65,10510.5L1056.61,10510.2L1056.92,10511.2C1055.32,10511.7 1053.7,10512.2 1052.08,10512.7ZM1037.2,10516.3L1037.01,10515.3L1038,10515.1C1038.99,10514.9 1039.99,10514.7 1040.97,10514.5L1041.96,10514.3L1042.17,10515.2C1040.52,10515.6 1038.87,10516 1037.2,10516.3ZM1022.03,10518.3L1021.94,10517.3L1022.95,10517.2C1023.96,10517.1 1024.97,10517 1025.97,10516.9L1026.97,10516.8L1027.08,10517.8C1025.41,10518 1023.73,10518.2 1022.03,10518.3ZM1006.74,10518.8L1006.75,10517.8L1007.76,10517.8C1008.26,10517.8 1008.77,10517.8 1009.28,10517.8C1009.79,10517.8 1010.29,10517.8 1010.8,10517.8L1011.81,10517.8L1011.82,10518.8C1010.97,10518.8 1010.13,10518.8 1009.28,10518.8C1008.43,10518.8 1007.59,10518.8 1006.74,10518.8ZM991.475,10517.8L991.585,10516.8L992.586,10516.9C993.592,10517 994.6,10517.1 995.612,10517.2L996.615,10517.3L996.524,10518.3C994.833,10518.2 993.15,10518 991.475,10517.8ZM976.389,10515.2L976.6,10514.3L977.584,10514.5C978.574,10514.7 979.567,10514.9 980.563,10515.1L981.552,10515.3L981.361,10516.3C979.694,10516 978.036,10515.6 976.389,10515.2ZM961.642,10511.2L961.952,10510.2L962.91,10510.5C963.872,10510.8 964.84,10511.1 965.811,10511.4L966.775,10511.7L966.484,10512.7C964.858,10512.2 963.244,10511.7 961.642,10511.2ZM947.387,10505.6L947.793,10504.7L948.714,10505.1C949.641,10505.5 950.572,10505.9 951.508,10506.3L952.437,10506.7L952.05,10507.6C950.482,10507 948.928,10506.3 947.387,10505.6ZM933.773,10498.6L934.27,10497.7L935.144,10498.2C936.025,10498.7 936.91,10499.2 937.802,10499.7L938.686,10500.2L938.207,10501.1C936.714,10500.3 935.236,10499.5 933.773,10498.6ZM920.935,10490.3L921.517,10489.5L922.337,10490.1C923.163,10490.7 923.994,10491.2 924.832,10491.8L925.663,10492.4L925.097,10493.2C923.693,10492.3 922.305,10491.3 920.935,10490.3ZM909.001,10480.7L909.663,10480L910.42,10480.6C911.182,10481.3 911.951,10482 912.726,10482.6L913.497,10483.3L912.85,10484C911.548,10482.9 910.265,10481.8 909.001,10480.7ZM898.09,10470L898.824,10469.3L899.511,10470C900.202,10470.8 900.901,10471.5 901.606,10472.2L902.308,10473L901.587,10473.7C900.401,10472.5 899.235,10471.2 898.09,10470ZM888.312,10458.2L889.111,10457.6L889.72,10458.4C890.334,10459.2 890.955,10460 891.584,10460.8L892.209,10461.6L891.422,10462.2C890.364,10460.9 889.327,10459.6 888.312,10458.2ZM879.769,10445.5L880.626,10445L881.151,10445.9C881.679,10446.7 882.217,10447.6 882.762,10448.4L883.305,10449.3L882.459,10449.8C881.539,10448.4 880.642,10447 879.769,10445.5ZM872.554,10432L873.459,10431.6L873.894,10432.5C874.333,10433.4 874.78,10434.3 875.236,10435.2L875.69,10436.1L874.794,10436.6C874.023,10435.1 873.276,10433.6 872.554,10432ZM866.747,10417.9L867.691,10417.5L868.032,10418.5C868.375,10419.4 868.728,10420.4 869.089,10421.3L869.449,10422.3L868.512,10422.6C867.898,10421.1 867.309,10419.5 866.747,10417.9ZM862.413,10403.2L863.387,10403L863.63,10403.9C863.874,10404.9 864.127,10405.9 864.391,10406.9L864.653,10407.9L863.684,10408.1C863.233,10406.5 862.81,10404.9 862.413,10403.2ZM859.598,10388.2L860.591,10388L860.733,10389C860.875,10390 861.028,10391 861.19,10392L861.352,10393L860.361,10393.2C860.079,10391.5 859.825,10389.8 859.598,10388.2Z" style="fill:rgb(78,97,82);"/>
        </g>
    </g>
</svg>
