<?xml version="1.0" encoding="UTF-8" standalone="no"?>
<!DOCTYPE svg PUBLIC "-//W3C//DTD SVG 1.1//EN" "http://www.w3.org/Graphics/SVG/1.1/DTD/svg11.dtd">
<svg width="654px" height="228px" version="1.1" xmlns="http://www.w3.org/2000/svg" xmlns:xlink="http://www.w3.org/1999/xlink" xml:space="preserve" xmlns:serif="http://www.serif.com/" style="fill-rule:evenodd;clip-rule:evenodd;stroke-linejoin:round;stroke-miterlimit:2;">
    <g transform="matrix(1,0,0,1,-14238.1,-16777.6)">
        <g transform="matrix(0.684633,0,0,0.793955,-7171.98,6879.31)">
            <g transform="matrix(4.46162,-0.67838,4.96954e-16,3.84068,28061.9,13967.3)">
                <g transform="matrix(27.358,0,0,27.358,812.915,-192.519)">
                </g>
                <g transform="matrix(27.358,0,0,27.358,818.307,-192.519)">
                </g>
                <g transform="matrix(27.358,0,0,27.358,855.922,-192.519)">
                </g>
                <g transform="matrix(27.358,0,0,27.358,859.483,-192.519)">
                </g>
                <g transform="matrix(27.358,0,0,27.358,901.883,-192.519)">
                </g>
                <g transform="matrix(27.358,0,0,27.358,906.197,-192.519)">
                </g>
                <g transform="matrix(27.358,0,0,27.358,925.056,-192.519)">
                </g>
                <text x="785.585px" y="-192.519px" style="font-family:'BelindaRegular', 'Belinda';font-size:27.358px;fill:rgb(54,41,19);">Togher wh famy</text>
            </g>
            <g transform="matrix(3.76939,-1.23928e-16,-8.18542e-17,3.25038,28306.3,13252.5)">
                <g transform="matrix(33.979,0,0,33.979,986.944,-192.519)">
                </g>
                <text x="785.585px" y="-192.519px" style="font-family:'SackersEnglishScriptStd', 'Sackers English Script Std';font-size:33.979px;">are getting married.</text>
            </g>
            <g transform="matrix(4.08166,-1.34194e-16,-8.86351e-17,3.51964,28014.1,13224.2)">
                <g transform="matrix(33.979,0,0,33.979,932.102,-192.519)">
                </g>
                <text x="785.585px" y="-192.519px" style="font-family:'SackersEnglishScriptStd', 'Sackers English Script Std';font-size:33.979px;">Yuki<tspan x="852.217px " y="-192.519px ">&amp;</tspan>Taki</text>
            </g>
        </g>
    </g>
</svg>
